PathFileType	4	(X/Y/Z)	D:\TRACE\spotREDO_2-26-24\spot_justBody_Motion_1_1-v60.trc
DataRate	CameraRate	NumFrames	NumMarkers	Units	OrigDataRate	OrigDataStartFrame	OrigNumFrames
100.00	100.00	      21	9	mm	100.00	5251	      7000
Frame#	Time	front left toe			Front right toe			aft left toe			aft right toe			Arm			FL body			FR body			AL Body			AR Body			
		X1	Y1	Z1	X2	Y2	Z2	X3	Y3	Z3	X4	Y4	Z4	X5	Y5	Z5	X6	Y6	Z6	X7	Y7	Z7	X8	Y8	Z8	X9	Y9	Z9	

5251	52.500	-344.43893	16.36082	-141.91493	220.12543	18.35154	-185.70564	-281.69012	33.86995	342.85629	260.69254	41.00363	326.97626	-82.19379	797.81097	-364.38583	-160.32840	537.86957	-325.77576	-5.06397	544.09778	-340.17346	-91.31020	577.44006	554.39197	57.13472	578.56433	543.25232	
5252	52.510	-343.90710	16.55701	-141.97542	220.93343	18.47424	-185.53331	-281.18494	33.88255	342.88065	261.18265	40.86598	326.88211	-81.83005	797.76282	-364.54871	-160.06436	537.81396	-325.79227	-4.77526	543.98029	-340.17432	-91.14027	577.57196	554.26660	57.27220	578.60425	543.17059	
5253	52.520	-343.46945	16.58585	-141.96623	221.26379	18.73081	-185.46214	-280.33182	33.74117	342.87354	261.46414	40.70336	326.88864	-81.15179	797.63611	-364.54843	-159.84784	537.83862	-325.76602	-4.20187	543.96466	-340.29025	-91.01028	577.66644	554.20630	57.48933	578.52515	543.11713	
5254	52.530	-342.53299	16.49475	-141.92178	221.78822	18.76814	-185.53714	-279.89664	33.69251	342.87341	262.06152	40.55737	326.77737	-80.73071	797.55475	-364.49161	-159.67079	537.93256	-325.82321	-3.86749	543.81659	-340.29697	-90.89338	577.73370	554.09204	57.73906	578.50830	543.13232	
5255	52.540	-341.75116	16.41242	-141.77394	222.77431	18.61762	-185.62585	-279.13116	33.54783	343.03900	263.07031	40.73321	327.00922	-80.28411	797.55511	-364.64633	-159.44318	537.97192	-325.81070	-3.58813	543.63483	-340.28232	-90.09460	577.02509	553.66919	57.97765	578.55981	543.12085	
5256	52.550	-341.29929	16.53316	-141.62926	223.50710	18.57425	-185.69933	-278.66599	33.34420	342.96976	263.68585	40.65734	327.11172	-79.76375	797.58289	-364.73264	-159.00156	538.14331	-325.82266	-3.27737	543.49738	-340.37656	-89.65651	577.08398	553.58478	58.28697	578.46289	543.08337	
5257	52.560	-340.88925	16.62196	-141.64246	223.92290	18.52498	-185.67874	-277.75317	33.23217	343.11938	264.25464	40.72620	327.13525	-79.41656	797.60571	-364.79352	-158.61189	538.13885	-325.92139	-3.10233	543.36560	-340.40714	-89.26128	577.14514	553.60370	58.56030	578.38739	543.04553	
5258	52.570	-340.07684	16.49646	-141.64203	224.75345	18.65404	-185.49016	-276.99640	33.18742	343.07840	265.14359	40.80644	327.15631	-78.94400	797.56238	-364.90451	-158.26704	538.10974	-326.18747	-2.87189	543.33154	-340.45486	-88.58090	576.87262	553.42163	58.99340	578.35016	542.84155	
5259	52.580	-339.26776	16.51819	-141.58153	225.17021	18.92853	-185.54214	-276.57028	33.25964	342.94064	265.95828	40.74065	327.10074	-78.53001	797.61481	-364.95840	-157.81963	538.14148	-326.03793	-2.51578	543.37030	-340.44891	-88.20355	576.88361	553.41400	59.32670	578.35876	542.76367	
5260	52.590	-338.49939	16.47847	-141.57391	225.94789	18.85745	-185.43755	-275.55835	32.78857	343.00070	266.44339	40.67553	327.00934	-77.93416	797.77942	-364.97934	-157.77135	538.29785	-326.22186	-2.11596	543.42389	-340.45370	-87.83324	576.94989	553.44214	59.71206	578.36078	542.73126	
5261	52.600	-337.87579	16.60623	-141.41328	226.64494	18.94451	-185.52078	-275.04495	32.80446	343.05481	266.74921	40.26887	326.90811	-77.60542	797.87695	-365.14005	-157.89027	538.74060	-326.78186	-1.77850	543.52570	-340.46008	-87.84227	577.31012	553.64056	60.08749	578.35785	542.69757	
5262	52.610	-337.34634	16.77937	-141.37338	227.56377	19.09097	-185.33987	-274.47037	32.73538	343.10233	267.99265	40.41319	327.10776	-76.99426	797.83685	-365.14288	-156.68340	538.31323	-325.94348	-1.17444	543.42847	-340.46283	-87.33969	577.40613	553.55981	60.71550	578.37988	542.70227	
5263	52.620	-336.52835	16.67330	-141.40225	228.38664	19.16359	-185.16809	-273.44968	32.53457	343.30060	268.79282	40.53459	327.16696	-76.37411	797.76361	-365.08795	-156.59425	538.37805	-326.19608	-0.82979	543.33179	-340.52512	-86.79800	577.49628	553.51031	60.96653	578.51221	542.72253	
5264	52.630	-335.50043	16.66666	-141.35980	228.73634	19.53341	-185.18355	-272.70547	32.33894	343.33905	269.27130	40.48027	327.03067	-75.73732	797.59186	-365.12720	-156.22476	538.40985	-326.32230	-0.44209	543.30725	-340.59177	-86.19173	577.55084	553.54761	61.36491	578.52856	542.62140	
5265	52.640	-335.04401	16.78444	-141.35223	229.62256	19.47390	-185.23518	-271.90683	32.39884	343.37811	269.99380	40.26175	326.96570	-75.26601	797.45636	-365.08310	-155.66818	538.57129	-326.34641	-0.00025	543.31390	-340.62747	-85.61883	577.47168	553.54163	62.05273	578.28290	542.66052	
5266	52.650	-334.33270	16.80381	-141.28235	230.56523	19.43108	-185.28877	-270.99091	32.12672	343.37659	270.95862	40.16146	326.98831	-74.64357	797.53699	-365.02631	-155.02237	538.69470	-326.56757	0.49709	543.26727	-340.69168	-84.98386	577.49500	554.07513	62.97717	577.88947	542.75446	
5267	52.660	-333.44058	16.78312	-141.06184	231.30833	19.66014	-185.36508	-270.48434	32.13686	343.35464	271.48495	39.86876	327.05063	-74.24694	797.57227	-365.07550	-154.63223	538.68427	-326.48596	1.00248	543.28699	-340.69778	-84.58742	577.48138	554.03149	63.53057	577.79102	542.67413	
5268	52.670	-332.37424	16.85218	-141.07144	231.70311	19.84553	-185.54378	-269.66946	32.12503	343.37598	272.23599	39.90739	327.09793	-73.79241	797.60803	-365.11255	-154.06242	538.72040	-326.33798	1.75819	543.26300	-340.65576	-83.98349	577.41553	553.96759	64.06539	577.75311	542.67108	
5269	52.680	-331.62250	16.79907	-141.13828	232.43063	19.77442	-185.50854	-268.77731	31.92579	343.35156	273.26318	40.02690	327.19662	-73.15236	797.69482	-365.19897	-153.51849	538.56177	-326.40045	2.12760	543.26715	-340.67596	-83.08758	577.40747	553.90503	64.74736	577.83606	542.65045	
5270	52.690	-331.18451	17.01411	-140.99442	233.75777	19.88240	-185.16763	-267.99353	31.79799	343.59601	273.92310	39.81042	327.14798	-72.58347	797.70587	-365.30841	-153.10889	538.46625	-326.25168	2.47980	543.25208	-340.74765	-82.34259	577.35168	553.88885	65.34456	578.10187	542.67090	
5271	52.700	-330.19458	17.05334	-141.00787	234.51532	19.85421	-185.01900	-267.14676	31.75354	343.76080	274.57794	39.46368	326.97958	-72.11323	797.72192	-365.28305	-152.54475	538.37195	-326.16791	3.02344	543.26105	-340.83972	-81.72198	577.32050	553.89844	66.04137	578.12524	542.59735	
